<svg width="120" height="119" viewBox="0 0 120 119" fill="none" xmlns="http://www.w3.org/2000/svg">
<g id="noto-v1:confounded-face">
<path id="Vector" d="M60 8.9622C1.58434 8.9622 0.196838 73.9102 0.196838 86.7678C0.196838 99.6253 26.9718 110.038 60 110.038C93.0375 110.038 119.803 99.616 119.803 86.7678C119.803 73.9102 118.425 8.9622 60 8.9622Z" fill="#88918D" fill-opacity="0.43"/>
<g id="Group">
<path id="Vector_2" d="M84.8062 55.428C77.6156 55.428 70.7531 51.858 66.7031 45.6942C65.925 44.5135 66.2625 42.9237 67.4531 42.1614C68.6437 41.3897 70.2469 41.7244 71.0156 42.9144C72.8857 45.759 75.6041 47.9543 78.792 49.1941C81.9799 50.434 85.4784 50.6567 88.8 49.8313C89.1287 49.7491 89.4706 49.7321 89.8059 49.7811C90.1413 49.8301 90.4636 49.9442 90.7545 50.1169C91.0453 50.2897 91.299 50.5175 91.5009 50.7876C91.7028 51.0576 91.8491 51.3645 91.9312 51.6906C92.0141 52.0166 92.0313 52.3556 91.9818 52.6882C91.9324 53.0208 91.8173 53.3404 91.6432 53.6289C91.469 53.9173 91.2392 54.1688 90.9669 54.3691C90.6946 54.5693 90.3851 54.7143 90.0562 54.7958C88.3219 55.2142 86.55 55.428 84.8062 55.428Z" fill="#786E6E" fill-opacity="0.47"/>
<path id="Vector_3" d="M35.1935 55.4279C33.4497 55.4279 31.6779 55.2141 29.9341 54.7772C29.2704 54.6117 28.7001 54.1917 28.3485 53.6094C27.9969 53.0272 27.8928 52.3303 28.0591 51.672C28.2271 51.0145 28.6508 50.4497 29.2377 50.1013C29.8245 49.7528 30.5266 49.649 31.1904 49.8126C34.512 50.6381 38.0105 50.4153 41.1984 49.1755C44.3862 47.9356 47.1047 45.7404 48.9747 42.8957C49.3479 42.3291 49.932 41.9319 50.5994 41.7908C51.2669 41.6497 51.9635 41.7762 52.5372 42.1427C53.7279 42.9143 54.0654 44.4948 53.2872 45.6755C49.256 51.8579 42.3841 55.4279 35.1935 55.4279Z" fill="#786E6E" fill-opacity="0.47"/>
<g id="Group_2">
<path id="Vector_4" d="M60 71.149C67.575 71.149 71.2406 67.5046 76.7812 67.5046C86.7844 67.5046 94.4719 72.5249 94.8 77.508C95.0812 81.6451 89.4281 81.766 86.7937 79.5347C83.9156 77.1176 80.8406 75.0165 77.1094 73.7893C72.1406 72.153 66.9469 75.6951 60 75.6951" fill="#786E6E" fill-opacity="0.47"/>
<path id="Vector_5" d="M59.9999 71.149C52.4249 71.149 48.7593 67.5046 43.2187 67.5046C33.2156 67.5046 25.5281 72.5249 25.1999 77.508C24.9187 81.6451 30.5718 81.766 33.2062 79.5347C36.0843 77.1176 39.1593 75.0165 42.8906 73.7893C47.8593 72.153 53.0531 75.6951 59.9999 75.6951" fill="#786E6E" fill-opacity="0.47"/>
</g>
</g>
</g>
</svg>
